<?xml version="1.0" encoding="utf-8"?>
<!-- Generator: Adobe Illustrator 16.0.0, SVG Export Plug-In . SVG Version: 6.00 Build 0)  -->
<svg version="1.2" baseProfile="tiny" id="Layer_1" xmlns="http://www.w3.org/2000/svg" xmlns:xlink="http://www.w3.org/1999/xlink"
	 x="0px" y="0px" width="100px" height="100px" viewBox="0 0 100 100" xml:space="preserve">
<path fill="#666E79" d="M86.643,57.485c0.012-0.425,0.061-0.835,0.061-1.265c0-21.722-16.688-39.33-37.273-39.33
	c-20.589,0-37.278,17.607-37.278,39.33v39.304h36.856c0.143,0,0.279,0.022,0.421,0.022c0.142,0,0.278-0.022,0.42-0.022h36.792
	V57.485L86.643,57.485z"/>
<image width="169" height="328" xlink:href="27949385.png"  transform="matrix(0.24 0 0 0.24 12.1523 16.8911)">
</image>
<image width="169" height="328" xlink:href="27949387.png"  transform="matrix(0.24 0 0 0.24 46.4751 16.8911)">
</image>
<g>
	<polygon fill="#E7E9ED" points="49.442,69.349 43.232,72.595 33.915,62.766 36.683,58.781 	"/>
	<polygon fill="#E7E9ED" points="49.569,69.349 55.775,72.595 65.089,62.766 62.331,58.781 	"/>
</g>
<path fill="#666E79" d="M61.707,13.727c0,0,12.576-1.865,9.409,19.554l-6.209-9.824c0,0-7.359,3.276-15.435,3.276
	c-8.042,0-15.617-3.276-15.617-3.276l-6.179,9.795l-0.031,0.029C24.451-2.751,64.937,4.424,64.937,4.424
	C58.912,7.011,61.707,13.727,61.707,13.727z"/>
<image width="42" height="82" xlink:href="27949382.png"  transform="matrix(0.24 0 0 0.24 61.707 13.686)">
</image>
<image width="130" height="123" xlink:href="27949383.png"  transform="matrix(0.24 0 0 0.24 27.4653 3.8418)">
</image>
<path fill="#EAC7BC" d="M71.208,36.591c0,15.56-13.442,29.91-21.736,29.91c-8.253,0-21.736-14.35-21.736-29.91v-3.31l-0.06-0.029
	l6.179-9.795c0,0,7.575,3.272,15.617,3.272c8.076,0,15.435-3.272,15.435-3.272l6.214,9.824h0.087V36.591L71.208,36.591z"/>
<image width="104" height="180" xlink:href="2794938D.png"  transform="matrix(0.24 0 0 0.24 46.3716 23.457)">
</image>
<image width="104" height="180" xlink:href="2794938F.png"  transform="matrix(0.24 0 0 0.24 27.6758 23.457)">
</image>
<path fill="#6899D1" d="M86.643,98.799H12.122v-3.274c0,0,0-8.745,0-14.183c0-5.471,2.607-7.531,7.761-9.567
	c2.549-1.015,7.115-2.813,10.87-4.716l3.633-3.799l8.847,9.335l6.21-3.244l6.211,3.244l8.818-9.305l3.541,3.74
	c3.787,1.932,8.322,3.729,10.867,4.744c5.185,2.036,7.763,4.097,7.763,9.567c0,5.438,0,14.183,0,14.183V98.799L86.643,98.799z"/>
<image width="106" height="149" xlink:href="27949380.png"  transform="matrix(0.24 0 0 0.24 12.1216 63.2559)">
</image>
<image width="106" height="149" xlink:href="27949381.png"  transform="matrix(0.24 0 0 0.24 61.3496 63.2559)">
</image>
<g>
	<polygon fill="#ED5765" points="52.67,98.799 46.465,98.799 48.016,74.228 51.118,74.228 	"/>
	<rect x="46.696" y="69.781" fill="#ED5765" width="5.535" height="4.45"/>
</g>
<g>
	<path fill="#3A3948" d="M12.152,97.168c-0.86,0-1.553-0.73-1.553-1.64V81.339c0-6.382,3.218-8.901,8.771-11.092
		c1.859-0.736,6.797-2.683,10.739-4.669c0.781-0.393,1.699-0.049,2.072,0.769c0.372,0.821,0.042,1.796-0.73,2.188
		c-3.646,1.836-8.02,3.607-10.993,4.783c-5.301,2.089-6.755,3.812-6.755,8.021v14.189C13.703,96.438,13.009,97.168,12.152,97.168z"
		/>
	<path fill="#3A3948" d="M86.67,97.168c-0.859,0-1.553-0.73-1.553-1.64V81.339c0-4.209-1.449-5.932-6.751-8.021
		c-2.973-1.176-7.355-2.953-11.003-4.794c-0.772-0.392-1.099-1.37-0.729-2.186c0.371-0.817,1.308-1.159,2.068-0.769
		c3.542,1.785,7.832,3.521,10.745,4.677c5.558,2.19,8.775,4.71,8.775,11.092v14.189C88.224,96.438,87.528,97.168,86.67,97.168z"/>
	<path fill="#3A3948" d="M49.505,68.133c-8.771,0-23.286-14.732-23.286-31.518c0-0.908,0.693-1.638,1.549-1.638
		c0.86,0,1.554,0.729,1.554,1.638c0,14.564,12.589,28.243,20.183,28.243c7.593,0,20.182-13.679,20.182-28.243
		c0-0.908,0.695-1.638,1.551-1.638c0.86,0,1.553,0.729,1.553,1.638C72.791,53.4,58.277,68.133,49.505,68.133z"/>
	<path fill="#3A3948" d="M27.676,34.929c-0.127,0-0.255-0.018-0.379-0.051c-0.639-0.169-1.105-0.745-1.165-1.436
		c-0.824-9.253,1.077-16.631,5.649-21.923C38.424,3.82,49.2,2.204,57.063,2.204c4.696,0,8.013,0.577,8.151,0.603
		c0.686,0.123,1.209,0.707,1.288,1.434c0.076,0.726-0.312,1.418-0.951,1.699c-1.326,0.572-2.173,1.388-2.601,2.495
		c-0.487,1.276-0.311,2.701-0.099,3.631c1.586,0.067,4.775,0.603,7.204,3.596c2.957,3.643,3.838,9.658,2.623,17.882
		c-0.099,0.667-0.574,1.202-1.198,1.348c-0.636,0.146-1.273-0.13-1.627-0.69l-5.521-8.738c-2.472,0.945-8.394,2.916-14.828,2.916
		c-6.455,0-12.51-1.983-15.012-2.924l-5.525,8.747C28.677,34.662,28.187,34.929,27.676,34.929z M64.937,21.823
		c0.507,0,0.996,0.264,1.29,0.731l3.83,6.062c0.24-4.908-0.56-8.606-2.357-10.824c-1.737-2.139-4.015-2.458-5.221-2.458
		c-0.302,0-0.496,0.021-0.533,0.025c-0.688,0.099-1.356-0.3-1.635-0.962c-0.063-0.153-1.54-3.782-0.235-7.189
		c0.218-0.576,0.501-1.102,0.84-1.59c-1.11-0.078-2.413-0.137-3.852-0.137c-7.24,0-17.107,1.43-22.988,8.241
		c-3.124,3.622-4.799,8.452-5.004,14.407l3.524-5.574c0.408-0.651,1.199-0.907,1.88-0.609c0.073,0.03,7.385,3.152,15.03,3.152
		c7.636,0,14.756-3.114,14.828-3.146C64.53,21.866,64.734,21.823,64.937,21.823z"/>
	<path fill="#3A3948" d="M71.238,38.25c-0.855,0-1.551-0.732-1.551-1.635v-3.328c0-0.902,0.695-1.638,1.551-1.638
		c0.86,0,1.553,0.736,1.553,1.638v3.328C72.791,37.521,72.099,38.25,71.238,38.25z"/>
	<path fill="#3A3948" d="M27.769,38.25c-0.856,0-1.549-0.732-1.549-1.635v-3.328c0-0.902,0.693-1.638,1.549-1.638
		c0.86,0,1.554,0.736,1.554,1.638v3.328C29.323,37.521,28.629,38.25,27.769,38.25z"/>
	<path fill="#3A3948" d="M43.25,74.235c-0.403,0-0.802-0.165-1.099-0.476l-9.313-9.829c-0.605-0.641-0.605-1.678,0-2.314
		c0.606-0.643,1.59-0.643,2.195,0l8.526,8.995l5.256-2.756c0.76-0.396,1.695-0.075,2.083,0.738c0.379,0.81,0.066,1.798-0.703,2.198
		l-6.255,3.276C43.72,74.183,43.483,74.235,43.25,74.235z"/>
	<path fill="#3A3948" d="M55.667,74.235c-0.233,0-0.469-0.053-0.692-0.167l-6.253-3.278c-0.769-0.398-1.081-1.387-0.702-2.196
		c0.384-0.813,1.311-1.135,2.083-0.738l5.255,2.754l8.527-8.993c0.604-0.643,1.589-0.643,2.195,0c0.604,0.635,0.604,1.674,0,2.314
		l-9.316,9.827C56.466,74.07,56.068,74.235,55.667,74.235z"/>
	<path fill="#3A3948" d="M49.578,77.514c-0.397,0-0.796-0.158-1.1-0.479l-3.103-3.274c-0.608-0.643-0.608-1.682,0-2.318
		c0.606-0.641,1.589-0.641,2.195,0l3.106,3.274c0.606,0.643,0.606,1.678,0,2.318C50.372,77.355,49.975,77.514,49.578,77.514z"/>
	<path fill="#3A3948" d="M49.578,77.514c-0.397,0-0.796-0.158-1.1-0.479c-0.605-0.641-0.605-1.676,0-2.318l3.107-3.274
		c0.604-0.641,1.589-0.641,2.194,0c0.606,0.643,0.606,1.676,0,2.318l-3.103,3.274C50.372,77.355,49.975,77.514,49.578,77.514z"/>
	<path fill="#3A3948" d="M46.475,97.168c-0.042,0-0.08,0-0.122-0.011c-0.854-0.061-1.492-0.848-1.426-1.751l1.551-21.295
		c0.063-0.902,0.896-1.641,1.665-1.505c0.857,0.065,1.496,0.853,1.429,1.755l-1.553,21.293
		C47.958,96.513,47.277,97.168,46.475,97.168z"/>
	<path fill="#3A3948" d="M52.683,97.168c-0.807,0-1.485-0.655-1.546-1.514l-1.552-21.293c-0.066-0.902,0.572-1.689,1.425-1.755
		c0.772-0.152,1.6,0.6,1.669,1.505l1.551,21.295c0.065,0.903-0.573,1.69-1.429,1.751C52.76,97.168,52.724,97.168,52.683,97.168z"/>
	<path fill="#3A3948" d="M86.67,70.947c-0.859,0-1.553-0.734-1.553-1.64V56.221c0-0.905,0.693-1.639,1.553-1.639
		c0.858,0,1.554,0.733,1.554,1.639v13.087C88.224,70.213,87.528,70.947,86.67,70.947z"/>
	<path fill="#3A3948" d="M86.67,57.862c-0.859,0-1.553-0.736-1.553-1.64c0-9.208-3.17-18.06-8.932-24.939
		c-0.566-0.678-0.506-1.711,0.137-2.31c0.633-0.597,1.616-0.542,2.193,0.142c6.26,7.476,9.708,17.101,9.708,27.107
		C88.224,57.126,87.528,57.862,86.67,57.862z"/>
	<path fill="#3A3948" d="M12.152,70.947c-0.86,0-1.553-0.734-1.553-1.64V56.221c0-0.905,0.693-1.639,1.553-1.639
		c0.856,0,1.55,0.733,1.55,1.639v13.087C13.703,70.213,13.009,70.947,12.152,70.947z"/>
	<path fill="#3A3948" d="M12.152,57.862c-0.86,0-1.553-0.736-1.553-1.64c0-10.007,3.449-19.631,9.71-27.107
		c0.572-0.684,1.55-0.739,2.192-0.146c0.642,0.603,0.703,1.635,0.137,2.313c-5.762,6.88-8.935,15.732-8.935,24.939
		C13.703,57.126,13.009,57.862,12.152,57.862z"/>
</g>
</svg>
